<svg xmlns="http://www.w3.org/2000/svg" xmlns:xlink="http://www.w3.org/1999/xlink" height="102" viewBox="0 0 36 102" width="36"><svg height="30.3" viewBox="41 -8 18 31" width="17.2" x="4" y="4"><g fill="#D3A88A"><path d="M56.4-6.9c-0.6-0.6-1.5-1-2.4-1H44c-1.9,0-3.4,1.5-3.4,3.4v22.9c0,1.9,1.5,3.4,3.4,3.4H54 c1.9,0,3.4-1.5,3.4-3.4V-4.5C57.4-5.4,57-6.2,56.4-6.9z M54,20.3H44c-1,0-1.8-0.8-1.8-1.8l0-22.9c0-1,0.8-1.8,1.8-1.8H54 c1,0,1.8,0.8,1.8,1.8v22.9C55.8,19.4,55,20.3,54,20.3z"/><path d="M47.5-5.1h3c0.3,0,0.5-0.2,0.5-0.5S50.8-6,50.5-6h-3C47.2-6,47-5.8,47-5.5C47-5.3,47.2-5.1,47.5-5.1z"/><path d="M54.5-4.8H43.5c-0.3,0-0.5,0.2-0.5,0.5V16c0,0.3,0.2,0.5,0.5,0.5h4.9c-0.7,0.3-1.3,0.9-1.3,1.8 c0,1,0.8,1.9,1.9,1.9c1,0,1.9-0.8,1.9-1.9c0-0.8-0.5-1.5-1.3-1.8h4.9c0.3,0,0.5-0.2,0.5-0.5V-4.3C55-4.5,54.8-4.8,54.5-4.8z M49.8,18.3c0,0.4-0.4,0.8-0.8,0.8s-0.8-0.4-0.8-0.8s0.4-0.8,0.8-0.8S49.8,17.9,49.8,18.3z M53.9,15.5h-9.9V-3.7h9.9l0,18.6 C53.9,15.2,53.9,15.4,53.9,15.5z"/></g></svg><svg height="28" viewBox="166 383 28 28" width="28" x="4" y="39"><path fill="#D3A88A" d="M189.3,386.7c-2.6-2.6-6.1-4-9.8-4s-7.2,1.4-9.8,4c-2.6,2.6-4,6.1-4,9.8s1.4,7.2,4,9.8c2.6,2.6,6.1,4,9.8,4 c1.9,0,3.7-0.4,5.4-1.1l-0.7-1.6c-1.5,0.6-3.1,1-4.7,1c-6.7,0-12.1-5.4-12.1-12.1s5.4-12.1,12.1-12.1s12.1,5.4,12.1,12.1 c0,2.9-1.8,4.3-3.5,4.3c-1.7,0-3.5-1.3-3.5-4.3c0-2.9-2.3-5.2-5.2-5.2s-5.2,2.3-5.2,5.2s2.3,5.2,5.2,5.2c1.7,0,3.2-0.8,4.1-2.1 c0.2,0.5,0.5,0.9,0.9,1.3c0.9,1,2.2,1.5,3.6,1.5c1.4,0,2.6-0.5,3.6-1.5c1-1.1,1.6-2.6,1.6-4.4C193.3,392.8,191.9,389.3,189.3,386.7z M179.5,400c-1.9,0-3.5-1.6-3.5-3.5s1.6-3.5,3.5-3.5s3.5,1.6,3.5,3.5S181.4,400,179.5,400z"/></svg><svg height="26.6" viewBox="446 -6 27 27" width="26.6" x="4" y="71"><g fill="#D3A88A"><path d="M470,10.9c0.5-1.3,0.8-2.7,0.8-4.2c0-3.1-1.2-6.1-3.5-8.3c-2.2-2.2-5.2-3.5-8.3-3.5 c-1.4,0-2.8,0.3-4.1,0.7c-1-1.1-2.3-1.7-3.8-1.7c-2.8,0-5.1,2.3-5.1,5.1c0,1.5,0.7,2.9,1.8,3.9c-0.4,1.2-0.6,2.4-0.6,3.7 c0,3.1,1.2,6.1,3.5,8.3c2.2,2.2,5.2,3.5,8.3,3.5c1.3,0,2.5-0.2,3.7-0.6c1,1.3,2.5,2.1,4.1,2.1c2.8,0,5.1-2.3,5.1-5.1 C472,13.3,471.3,11.8,470,10.9z M466.9,18.9c-1.4,0-2.7-0.8-3.4-2c-0.1-0.2-0.3-0.3-0.5-0.3c-0.1,0-0.1,0-0.2,0 c-1.2,0.5-2.5,0.7-3.8,0.7c-2.9,0-5.5-1.1-7.6-3.1c-2-2-3.1-4.7-3.1-7.6c0-1.3,0.2-2.5,0.7-3.7c0.1-0.2,0-0.5-0.2-0.6 c-1.1-0.8-1.7-2-1.7-3.3c0-2.2,1.8-4,4-4c1.2,0,2.4,0.6,3.2,1.6c0.2,0.2,0.4,0.3,0.7,0.2c1.3-0.5,2.7-0.8,4.1-0.8 c2.9,0,5.5,1.1,7.6,3.1c2,2,3.1,4.7,3.1,7.6c0,1.4-0.3,2.8-0.8,4.2c-0.1,0.2,0,0.5,0.2,0.7c1.2,0.7,1.8,2,1.8,3.4 C470.9,17.1,469.1,18.9,466.9,18.9z"/><path d="M459.8,5c-3.8-0.7-4.1-1.9-3.2-2.7c0.9-0.8,3.7-1.2,4.4,0.2c0.7,1.4,1.3,1.9,2.3,1.7 c1-0.2,1.1-1.6,0.7-2.4c-0.3-0.7-1.8-2.3-4.8-2.3c-3,0-6.1,1.1-6.1,3.8s2.8,3.9,5.6,4.3c2.7,0.4,3.4,1.6,3,2.4 c-0.4,0.8-1.5,1.7-3.3,1.5c-1.8-0.2-2.6-1.7-2.8-2.4c-0.2-0.7-1.1-0.8-1.5-0.8c-0.4,0-1.6,0.5-1.1,2.3c0.6,1.7,2.4,3.1,6.1,3.1 c3.7,0,5.8-2.3,5.8-4.4C465.1,7.1,463.6,5.7,459.8,5z"/></g></svg></svg>